<svg xmlns="http://www.w3.org/2000/svg" viewBox="0 0 64 64"><g id="Layer_52" data-name="Layer 52"><path d="M47.58,26.08c-7.83.25-7.83,11.6,0,11.84C55.41,37.67,55.4,26.32,47.58,26.08Zm0,8.84a2.92,2.92,0,0,1,0-5.84A2.92,2.92,0,0,1,47.58,34.92Z"/><path d="M32,26.08c-7.83.25-7.83,11.6,0,11.84C39.83,37.67,39.83,26.32,32,26.08Zm0,8.84a2.92,2.92,0,0,1,0-5.84A2.92,2.92,0,0,1,32,34.92Z"/><path d="M16.42,26.08c-7.83.25-7.82,11.6,0,11.84C24.25,37.67,24.25,26.32,16.42,26.08Zm0,8.84a2.92,2.92,0,0,1,0-5.84A2.92,2.92,0,0,1,16.42,34.92Z"/></g></svg>